<svg fill="#fff" xmlns="http://www.w3.org/2000/svg" width="75" height="75" viewBox="0 0 960 560"><path d="M953.472 240.832c0-109.248-208.32-194.88-474.432-194.88-265.92.192-474.432 85.632-474.432 194.88 0 33.216 19.968 65.856 57.984 94.272l9.6-12.864c-33.6-25.344-51.456-53.376-51.456-81.408 0-45.696 48-91.2 131.52-124.608C239.424 81.28 355.392 62.08 479.04 62.08s239.616 19.2 326.784 54.144c83.52 33.408 131.52 78.912 131.52 124.608 0 81.6-145.536 153.6-348.096 173.376l45.12-51.072-12.096-10.56-63.936 72.384 76.8 58.56 9.792-12.864-53.184-40.32c213.888-21.12 361.728-98.112 361.728-189.504z"/><path d="M240.148 399.536c22.464-7.68 40.896-25.728 40.896-49.536 0-32.256-29.952-52.992-70.464-52.992-28.608 0-50.88 9.408-68.544 21.888l10.944 36.096c14.208-9.984 30.144-17.28 45.312-17.28 19.584 0 29.568 7.68 29.568 21.312 0 21.312-26.112 27.648-54.336 32.832v35.712c7.68-.96 17.28-1.92 26.304-1.536 24.768.96 36.672 9.024 36.672 25.344 0 17.28-14.208 26.688-36.288 26.112-17.664-.384-37.632-7.104-52.8-15.744l-5.76 39.552c17.088 9.408 38.592 15.168 62.784 15.168 45.12 0 82.56-24.192 82.56-65.664.192-24.384-15.936-45.504-46.848-51.264zM389.524 254.768h-75.648v201.024h72c73.728 0 114.432-40.128 114.432-101.952 0-59.904-40.128-99.072-110.784-99.072zm-.768 160.128h-23.808V295.664h21.312c41.856 0 62.784 18.624 62.784 60.096-.192 40.128-23.232 59.136-60.288 59.136z"/></svg>