<svg xmlns="http://www.w3.org/2000/svg" viewBox="0 0 936 758.831"><path d="M710.547 218.13L936 38.759 905.169 0 659.841 195.172c-57.918-23.344-122.829-39.42-191.759-39.42-244.722 0-438.958 202.88-447.106 211.524-7.598 8.038-7.598 20.646 0 28.684 5.12 5.395 83.299 87.098 201.173 147.384L0 720.072l30.831 38.759 241.694-192.254c58.854 24.169 125.086 40.961 195.502 40.961 244.777 0 438.958-202.88 447.106-211.524 7.598-8.038 7.598-20.646 0-28.684-5.119-5.56-84.785-88.804-204.586-149.2zm-242.465-20.04c48.504 0 92.603 18.939 125.417 49.77l-78.729 62.598c-13.434-8.809-29.455-13.984-46.742-13.984-46.962 0-85.061 38.098-85.061 85.061 0 10.406 1.872 20.371 5.285 29.565l-78.509 62.433c-15.856-27.087-24.94-58.634-24.94-92.218C284.802 280.288 367 198.09 468.082 198.09zM66.067 381.59C99.541 350.153 187.52 274.507 301.32 230.628c-36.116 39.915-58.139 92.824-58.139 150.742 0 43.384 12.332 83.96 33.749 118.369l-18.113 14.425c-92.935-44.32-163.571-105.211-192.75-132.574zm402.015 183.06c-49.66 0-94.696-19.875-127.729-52.028l78.014-62.048c13.984 10.13 31.161 16.076 49.77 16.076 46.962 0 85.061-38.098 85.061-85.061 0-11.672-2.367-22.848-6.662-32.978l78.234-62.213c16.902 27.693 26.592 60.231 26.592 95.026-.055 101.028-82.253 183.226-183.28 183.226zm166.158-31.877c36.447-39.97 58.744-93.154 58.744-151.403 0-44.54-13.048-86.107-35.456-121.067l16.241-12.938c94.696 44.375 166.763 106.533 196.328 134.281-33.582 31.491-121.726 107.248-235.857 151.127z"/></svg>