<svg xmlns="http://www.w3.org/2000/svg" viewBox="0 0 924.75 81"><path d="M225.184 14.427c-3.068-3.296-6.97-5.876-11.709-7.735-4.74-1.858-10.317-2.789-16.728-2.789h-46.282v1.672c1.764.186 2.857.488 3.275.906.419.418.627.956.627 1.605v64.968c0 .641-.208 1.176-.627 1.599-.418.41-1.511.724-3.275.9v1.683h44.749c6.503 0 12.196-1.025 17.078-3.076 4.877-2.037 8.966-4.756 12.265-8.158 3.299-3.391 5.763-7.286 7.39-11.699a39.487 39.487 0 0 0 2.439-13.736c0-5.207-.768-10.033-2.302-14.502-1.532-4.456-3.833-8.337-6.9-11.638zm-16.308 40.708c-3.254 3.759-8.554 5.645-15.892 5.645H175.28V20.353h17.703c7.339 0 12.638 1.886 15.892 5.645 3.251 3.759 4.877 8.623 4.877 14.569.001 5.945-1.625 10.796-4.876 14.568zM100.98 3.903h28.717v1.672c-1.765.186-2.857.488-3.275.906-.418.418-.628.956-.628 1.605v64.968c0 .641.21 1.176.628 1.599.418.41 1.51.724 3.275.9v1.683H100.98v-1.683c1.765-.176 2.86-.491 3.276-.9.418-.424.627-.958.627-1.599V8.085c0-.649-.209-1.187-.627-1.605-.417-.418-1.511-.719-3.276-.906V3.903zm270.518 10.524c-3.069-3.296-6.971-5.876-11.71-7.735-4.74-1.858-10.317-2.789-16.73-2.789h-46.28v1.672c1.762.186 2.856.488 3.275.906.417.418.627.956.627 1.605v64.968c0 .641-.21 1.176-.627 1.599-.419.41-1.513.724-3.275.9v1.683h44.746c6.504 0 12.199-1.025 17.078-3.076 4.879-2.037 8.967-4.756 12.269-8.158 3.296-3.391 5.761-7.286 7.386-11.699a39.44 39.44 0 0 0 2.439-13.736c0-5.207-.766-10.033-2.3-14.502-1.532-4.456-3.831-8.337-6.898-11.638zm-16.311 40.708c-3.253 3.759-8.549 5.645-15.892 5.645h-17.703V20.353h17.703c7.343 0 12.639 1.886 15.892 5.645 3.253 3.759 4.88 8.623 4.88 14.569 0 5.945-1.627 10.796-4.88 14.568zM78.065 42.863c1.673 2.652 2.509 5.973 2.509 9.977 0 3.062-.627 6.082-1.882 9.061-1.254 2.967-3.394 5.645-6.412 8.01-3.02 2.362-7.063 4.249-12.128 5.642-5.066 1.396-11.36 2.092-18.889 2.092-5.855 0-10.897-.273-15.125-.833-4.231-.56-7.831-1.232-10.805-2.023-2.974-.794-5.32-1.505-7.039-2.159-1.72-.657-2.998-.972-3.834-.972-.557 0-1.045.178-1.464.549-.418.382-.861.791-1.323 1.256L0 73.053l10.316-24.819 1.394.696c-.188.56-.28 1.529-.28 2.925 0 .928.858 1.981 2.58 3.143 1.719 1.162 3.949 2.254 6.691 3.265 2.74 1.025 5.876 1.886 9.409 2.583a55.156 55.156 0 0 0 10.735 1.053c6.969 0 12.079-.819 15.333-2.446 3.253-1.627 4.88-3.976 4.88-7.038 0-1.669-1.418-2.856-4.252-3.555-2.836-.696-6.391-1.256-10.665-1.68a1487.09 1487.09 0 0 1-13.8-1.393c-4.928-.507-9.527-1.435-13.801-2.789-4.277-1.34-7.83-3.293-10.664-5.848-2.836-2.558-4.252-6.068-4.252-10.523 0-3.527.812-6.74 2.439-9.62 1.625-2.878 3.904-5.344 6.83-7.389 2.928-2.042 6.482-3.644 10.664-4.809 4.182-1.162 8.829-1.744 13.941-1.744 4.74 0 9.153.304 13.244.906 4.089.607 7.712 1.281 10.873 2.023 3.158.744 5.807 1.418 7.946 2.02 2.137.607 3.669.908 4.6.908.928 0 1.673-.209 2.23-.627a9.444 9.444 0 0 0 1.534-1.463l1.534.555-9.619 19.377-1.673-.836v-1.53c0-.833-.906-1.694-2.718-2.583-1.813-.889-4.112-1.669-6.902-2.365-2.787-.696-5.902-1.284-9.339-1.75a75.234 75.234 0 0 0-10.037-.694c-6.041 0-10.27.694-12.685 2.089-2.418 1.393-3.625 2.884-3.625 4.469 0 1.572.836 2.761 2.509 3.552 1.673.794 3.856 1.368 6.552 1.736 2.695.368 5.761.683 9.201.903 3.437.231 6.97.588 10.594 1.053a97.316 97.316 0 0 1 10.594 1.953c3.438.833 6.504 2.064 9.201 3.689a19.623 19.623 0 0 1 6.553 6.413zM721.747 0h1.675v24.262h-1.675c-.187-1.585-.465-2.638-.836-3.143-.373-.507-.931-.766-1.674-.766h-44.749V31.93h25.931c1.393 0 2.39-.301 2.995-.917.604-.602.997-1.365 1.187-2.296h1.672V50.46h-1.672c-.189-.928-.582-1.694-1.187-2.295-.605-.602-1.602-.903-2.995-.903h-25.931V60.22h44.749c.744 0 1.301-.248 1.674-.766.371-.504.649-1.652.836-3.416h1.675v23.836h-1.675c-.187-1.204-.465-1.942-.836-2.229-.373-.273-.931-.41-1.674-.41h-69.56v-1.683c1.764-.176 2.856-.491 3.274-.9.418-.424.627-.958.627-1.599V8.085c0-.649-.209-1.187-.627-1.605-.418-.418-1.51-.719-3.274-.906V3.903h69.56c.744 0 1.301-.257 1.674-.766.371-.513.649-1.557.836-3.137zm82.443 3.903h25.51v1.672c-1.769.186-2.858.488-3.276.906-.418.418-.627.956-.627 1.605v64.968c0 .641.209 1.176.627 1.599.418.41 1.507.724 3.276.9v1.683h-26.488v-1.683c1.301 0 2.162-.137 2.58-.41.418-.287.627-.655.627-1.12 0-.273-.139-.629-.418-1.053-.279-.41-.883-1.134-1.811-2.159a443.901 443.901 0 0 0-4.112-4.386 704.227 704.227 0 0 1-7.18-7.668 2179.615 2179.615 0 0 1-11.014-11.986c-4.369-4.784-9.618-10.618-15.753-17.495v43.776c0 .641.209 1.176.627 1.599.421.41 1.51.724 3.276.9v1.683h-26.485v-1.683c1.764-.176 2.859-.491 3.277-.9.418-.424.627-.958.627-1.599V8.085c0-.649-.209-1.187-.627-1.605s-1.513-.719-3.277-.906V3.903h33.596v1.672c-1.583.095-2.627.304-3.137.627-.513.326-.766.722-.766 1.184 0 .189.605 1.025 1.811 2.511 1.21 1.488 2.789 3.346 4.742 5.575a825.33 825.33 0 0 0 6.62 7.464c2.463 2.733 4.948 5.48 7.458 8.214a628.936 628.936 0 0 0 7.249 7.818c2.321 2.46 4.321 4.578 5.993 6.341V8.085c0-1.58-.975-2.416-2.925-2.51V3.903zm117.094 38.96c1.672 2.652 2.51 5.973 2.51 9.977 0 3.062-.627 6.082-1.884 9.061-1.256 2.967-3.393 5.645-6.411 8.01-3.023 2.362-7.066 4.249-12.131 5.642-5.065 1.396-11.359 2.092-18.887 2.092-5.854 0-10.897-.273-15.126-.833-4.229-.56-7.829-1.232-10.802-2.023-2.976-.794-5.322-1.505-7.041-2.159-1.722-.657-2.998-.972-3.834-.972-.557 0-1.045.178-1.463.549a39.75 39.75 0 0 0-1.326 1.256l-1.672-.409 10.317-24.819 1.393.696c-.189.56-.279 1.529-.279 2.925 0 .928.858 1.981 2.577 3.143 1.719 1.162 3.951 2.254 6.692 3.265 2.742 1.025 5.876 1.886 9.409 2.583 3.53.699 7.11 1.053 10.735 1.053 6.971 0 12.078-.819 15.335-2.446 3.251-1.627 4.879-3.976 4.879-7.038 0-1.669-1.418-2.856-4.252-3.555-2.836-.696-6.391-1.256-10.665-1.68a1469.98 1469.98 0 0 1-13.8-1.393c-4.929-.507-9.526-1.435-13.8-2.789-4.277-1.34-7.832-3.293-10.665-5.848-2.836-2.558-4.252-6.068-4.252-10.523 0-3.527.811-6.74 2.441-9.62 1.624-2.878 3.904-5.344 6.829-7.389 2.925-2.042 6.484-3.644 10.665-4.809 4.182-1.162 8.827-1.744 13.939-1.744 4.739 0 9.153.304 13.243.906 4.09.607 7.715 1.281 10.874 2.023 3.159.744 5.806 1.418 7.946 2.02 2.137.607 3.67.908 4.6.908.927 0 1.674-.209 2.232-.627a9.352 9.352 0 0 0 1.532-1.463l1.532.555-9.618 19.378-1.672-.836V24.4c0-.833-.908-1.694-2.719-2.583-1.811-.889-4.112-1.669-6.901-2.365-2.786-.696-5.901-1.284-9.339-1.75a75.231 75.231 0 0 0-10.036-.694c-6.043 0-10.273.694-12.685 2.089-2.419 1.393-3.625 2.884-3.625 4.469 0 1.572.836 2.761 2.508 3.552 1.674.794 3.856 1.368 6.553 1.736 2.694.368 5.759.683 9.2.903 3.438.231 6.971.588 10.596 1.053a97.431 97.431 0 0 1 10.593 1.953c3.438.833 6.506 2.064 9.2 3.689 2.696 1.626 4.883 3.758 6.555 6.411zM397.116 3.903h28.717v1.672c-1.768.186-2.857.488-3.277.906-.418.418-.627.956-.627 1.605v64.968c0 .641.209 1.176.627 1.599.419.41 1.509.724 3.277.9v1.683h-28.717v-1.683c1.765-.176 2.857-.491 3.277-.9.418-.424.627-.958.627-1.599V8.085c0-.649-.209-1.187-.627-1.605-.419-.418-1.512-.719-3.277-.906V3.903zM517.92 48.794l14.36 21.88-1.675.984c-.187-.463-.443-.777-.766-.914-.329-.136-.721-.206-1.187-.206-.649 0-1.95.395-3.901 1.189-1.95.78-4.486 1.627-7.598 2.502-3.115.886-6.762 1.68-10.944 2.377-4.182.696-8.877 1.039-14.078 1.039a64.687 64.687 0 0 1-16.589-2.159c-5.486-1.435-10.409-3.717-14.777-6.834-4.37-3.101-7.9-7.01-10.595-11.713-2.697-4.686-4.043-10.139-4.043-16.371 0-6.233 1.346-11.685 4.043-16.388 2.694-4.686 6.224-8.587 10.595-11.702 4.369-3.112 9.292-5.461 14.777-7.041 5.48-1.58 11.014-2.371 16.589-2.371 5.575 0 10.384.304 14.427.906 4.043.607 7.459 1.281 10.248 2.023 2.694.744 4.784 1.373 6.275 1.881 1.485.513 2.599.769 3.343.769.836 0 1.532-.371 2.093-1.117l1.532.421-12.546 23-1.393-.972c.089-.287.159-.588.206-.914a8.19 8.19 0 0 0 .072-1.176c0-.752-.627-1.491-1.883-2.229-1.254-.752-2.925-1.421-5.018-2.023-2.09-.613-4.486-1.12-7.18-1.544a56.689 56.689 0 0 0-8.504-.616c-2.789 0-5.714.315-8.782.97-3.068.658-5.879 1.725-8.434 3.212a18.553 18.553 0 0 0-6.275 5.918c-1.624 2.46-2.438 5.466-2.438 8.994 0 3.524.814 6.533 2.438 8.994a18.553 18.553 0 0 0 6.275 5.918c2.555 1.488 5.366 2.555 8.434 3.21 3.068.658 5.993.973 8.782.973 1.21 0 3.112-.206 5.715-.63a66.289 66.289 0 0 0 7.807-1.736c2.602-.738 4.901-1.585 6.901-2.516 1.998-.928 2.998-1.897 2.998-2.923 0-.465-.095-.836-.278-1.109a9.304 9.304 0 0 1-.558-.984l1.532-.972zM631.389 75.28c.649.178 1.44.273 2.371.273v1.683h-31.924v-1.683c.836 0 1.485-.067 1.95-.204.465-.137.697-.671.697-1.599 0-.287-.418-1.12-1.254-2.516a216.585 216.585 0 0 0-3.207-5.152 245.634 245.634 0 0 0-4.321-6.559 468.649 468.649 0 0 1-4.461-6.684 165.787 165.787 0 0 0-3.764-5.578 175.026 175.026 0 0 1-2.229-3.21l-13.664 12.273v16.728c0 .641.209 1.176.63 1.599.418.41 1.508.724 3.274.9v1.683H546.77v-1.683c1.766-.176 2.858-.491 3.276-.9.418-.424.627-.958.627-1.599V8.085c0-.649-.209-1.187-.627-1.605s-1.51-.719-3.276-.906V3.903h28.717v1.672c-1.766.186-2.856.488-3.274.906-.42.418-.63.956-.63 1.605v25.087h.978a343.654 343.654 0 0 1 8.991-8.364 1152.69 1152.69 0 0 0 8.852-8.01 514.861 514.861 0 0 0 6.762-6.274c1.811-1.716 2.717-2.764 2.717-3.137 0-.833-.234-1.323-.697-1.46-.465-.142-1.07-.257-1.811-.351V3.903h35.406v1.672c-.928.095-1.697.234-2.298.418a5.722 5.722 0 0 0-1.675.838c-.512.371-1.07.814-1.672 1.324-.605.51-1.324 1.14-2.162 1.881L600.86 30.809l28.436 42.517c.744 1.12 1.441 1.764 2.093 1.954z"/></svg>