<svg xmlns="http://www.w3.org/2000/svg" width="75" height="75" viewBox="0 0 75 75"><path fill="#FFF" d="M37.425 20.475c-9.66 0-18.72 1.5-25.53 4.23C5.37 27.315 1.62 30.87 1.62 34.44c0 6.375 11.37 12 27.195 13.545l-3.525-3.99.945-.825 4.995 5.655-6 4.575-.765-1.005 4.155-3.15C11.91 47.595.36 41.58.36 34.44c0-8.535 16.275-15.225 37.065-15.225S74.49 25.905 74.49 34.44c0 7.14-11.55 13.155-28.26 14.805l4.155 3.15-.765 1.005-6-4.575 4.995-5.655.945.825-3.525 3.99C61.86 46.44 73.23 40.815 73.23 34.44c0-3.57-3.75-7.125-10.275-9.735-6.81-2.73-15.87-4.23-25.53-4.23z"/></svg>