<svg version="1.1" id="drag-icon" xmlns="http://www.w3.org/2000/svg" xmlns:xlink="http://www.w3.org/1999/xlink" x="0px" y="0px" viewBox="0 0 231.6 233.3" enable-background="new 0 0 231.6 233.3" xml:space="preserve">
	<path d="M141.7,33c0,0,2.8-2.9,2.8-2.8l0,0c0,0-28.2-28.2-28.2-28.2S88.2,30.2,88.1,30.2l0,0c0,0,2.8,2.8,2.8,2.8l0,0l23.4-23.4
		l0,104.5l-104.5,0l23.4-23.4l0,0c0,0-2.9-2.8-2.8-2.8l0,0c0,0-28.2,28.2-28.2,28.2s28.1,28.2,28.2,28.2l0,0c0.3-0.3,2.2-2.2,2.8-2.8
		l0,0L9.8,118.2h104.5l0,104.5L91,199.4l0,0c0,0-2.8,2.8-2.8,2.8l0,0c0,0,28.2,28.2,28.2,28.2s28.2-28.2,28.2-28.2l0,0
		c0,0-2.8-2.8-2.8-2.8l0,0l-23.4,23.4V118.2l104.5,0l-23.4,23.4l0,0c0,0,2.9,2.8,2.8,2.8l0,0c0,0,28.2-28.2,28.2-28.2
		S202.4,88,202.4,88l0,0l-2.8,2.8l0,0l23.4,23.4l-104.5,0l0-104.5L141.7,33L141.7,33z"/>
</svg>
