<svg version="1.1" id="drag-min-icon" xmlns="http://www.w3.org/2000/svg" xmlns:xlink="http://www.w3.org/1999/xlink" x="0px" y="0px" width="273.999px" height="67.81px" viewBox="0 0 273.999 67.81" enable-background="new 0 0 273.999 67.81" xml:space="preserve">
<path fill="#FFFFFF" d="M206.549-67.57l-6.721,6.721l56.168,56.168H61.267H5.161v-41.348H-4.921v41.108h-50.806h-200.029l56.168-56.168
	c0,0-6.961-6.721-6.721-6.721l-67.69,67.69c0,0,67.45,67.69,67.69,67.69c0.72-0.72,5.281-5.281,6.721-6.721l-56.168-55.928h200.029
	h50.806v40.868h9.841V4.921h56.346h194.489l-56.168,56.168c0,0,6.961,6.721,6.721,6.721l67.69-67.69L206.549-67.57z"/>
</svg>
