<svg version="1.1" id="eye-open" xmlns="http://www.w3.org/2000/svg" xmlns:xlink="http://www.w3.org/1999/xlink" x="0px" y="0px" viewBox="0 0 936 758.831" enable-background="new 0 0 936 758.831" xml:space="preserve">
<path d="M915.689,367.324C907.541,358.68,713.305,155.8,468.583,155.8S29.624,358.68,21.476,367.324
	c-7.598,8.038-7.598,20.646,0,28.684c8.148,8.644,202.384,211.524,447.106,211.524c244.777,0,438.958-202.88,447.106-211.524
	C923.287,387.969,923.287,375.417,915.689,367.324z M468.583,564.753c-101.027,0-183.225-82.198-183.225-183.28
	s82.198-183.225,183.225-183.225s183.28,82.198,183.28,183.225C651.808,482.555,569.61,564.753,468.583,564.753z M301.819,230.731
	c-36.116,39.915-58.139,92.824-58.139,150.742c0,58.194,22.242,111.322,58.634,151.293
	C188.35,488.886,100.096,413.185,66.567,381.693C100.04,350.201,188.019,274.61,301.819,230.731z M634.74,532.876
	c36.447-39.97,58.744-93.154,58.744-151.403c0-57.918-22.022-110.772-58.084-150.632c113.69,43.934,201.669,119.471,235.197,150.907
	C837.015,413.24,748.871,488.996,634.74,532.876z M468.583,296.632c46.978,0,85.061,38.083,85.061,85.061
	s-38.083,85.061-85.061,85.061s-85.061-38.083-85.061-85.061S421.605,296.632,468.583,296.632z"/>
</svg>
