<svg version="1.1" id="sid-logo" xmlns="http://www.w3.org/2000/svg" xmlns:xlink="http://www.w3.org/1999/xlink" x="0px" y="0px" viewBox="0 0 924.75 81" enable-background="new 0 0 924.75 81" xml:space="preserve">
<path d="M225.184,14.427c-3.068-3.296-6.97-5.876-11.709-7.735c-4.74-1.858-10.317-2.789-16.728-2.789
	h-46.282v1.672c1.764,0.186,2.857,0.488,3.275,0.906c0.419,0.418,0.627,0.956,0.627,1.605v64.968c0,0.641-0.208,1.176-0.627,1.599
	c-0.418,0.41-1.511,0.724-3.275,0.9v1.683h44.749c6.503,0,12.196-1.025,17.078-3.076c4.877-2.037,8.966-4.756,12.265-8.158
	c3.299-3.391,5.763-7.286,7.39-11.699c1.624-4.416,2.439-8.994,2.439-13.736c0-5.207-0.768-10.033-2.302-14.502
	C230.552,21.609,228.251,17.728,225.184,14.427z M208.876,55.135c-3.254,3.759-8.554,5.645-15.892,5.645H175.28V20.353h17.703
	c7.339,0,12.638,1.886,15.892,5.645c3.251,3.759,4.877,8.623,4.877,14.569C213.753,46.512,212.127,51.363,208.876,55.135z
	 M100.98,3.903h28.717v1.672c-1.765,0.186-2.857,0.488-3.275,0.906c-0.418,0.418-0.628,0.956-0.628,1.605v64.968
	c0,0.641,0.21,1.176,0.628,1.599c0.418,0.41,1.51,0.724,3.275,0.9v1.683H100.98v-1.683c1.765-0.176,2.86-0.491,3.276-0.9
	c0.418-0.424,0.627-0.958,0.627-1.599V8.085c0-0.649-0.209-1.187-0.627-1.605c-0.417-0.418-1.511-0.719-3.276-0.906V3.903z
	 M371.498,14.427c-3.069-3.296-6.971-5.876-11.71-7.735c-4.74-1.858-10.317-2.789-16.73-2.789h-46.28v1.672
	c1.762,0.186,2.856,0.488,3.275,0.906c0.417,0.418,0.627,0.956,0.627,1.605v64.968c0,0.641-0.21,1.176-0.627,1.599
	c-0.419,0.41-1.513,0.724-3.275,0.9v1.683h44.746c6.504,0,12.199-1.025,17.078-3.076c4.879-2.037,8.967-4.756,12.269-8.158
	c3.296-3.391,5.761-7.286,7.386-11.699c1.626-4.416,2.439-8.994,2.439-13.736c0-5.207-0.766-10.033-2.3-14.502
	C376.864,21.609,374.565,17.728,371.498,14.427z M355.187,55.135c-3.253,3.759-8.549,5.645-15.892,5.645h-17.703V20.353h17.703
	c7.343,0,12.639,1.886,15.892,5.645c3.253,3.759,4.88,8.623,4.88,14.569C360.067,46.512,358.44,51.363,355.187,55.135z
	 M78.065,42.863c1.673,2.652,2.509,5.973,2.509,9.977c0,3.062-0.627,6.082-1.882,9.061c-1.254,2.967-3.394,5.645-6.412,8.01
	c-3.02,2.362-7.063,4.249-12.128,5.642c-5.066,1.396-11.36,2.092-18.889,2.092c-5.855,0-10.897-0.273-15.125-0.833
	c-4.231-0.56-7.831-1.232-10.805-2.023c-2.974-0.794-5.32-1.505-7.039-2.159c-1.72-0.657-2.998-0.972-3.834-0.972
	c-0.557,0-1.045,0.178-1.464,0.549c-0.418,0.382-0.861,0.791-1.323,1.256L0,73.053l10.316-24.819l1.394,0.696
	c-0.188,0.56-0.28,1.529-0.28,2.925c0,0.928,0.858,1.981,2.58,3.143c1.719,1.162,3.949,2.254,6.691,3.265
	c2.74,1.025,5.876,1.886,9.409,2.583c3.531,0.699,7.11,1.053,10.735,1.053c6.969,0,12.079-0.819,15.333-2.446
	c3.253-1.627,4.88-3.976,4.88-7.038c0-1.669-1.418-2.856-4.252-3.555c-2.836-0.696-6.391-1.256-10.665-1.68
	c-4.274-0.409-8.875-0.875-13.8-1.393c-4.928-0.507-9.527-1.435-13.801-2.789c-4.277-1.34-7.83-3.293-10.664-5.848
	c-2.836-2.558-4.252-6.068-4.252-10.523c0-3.527,0.812-6.74,2.439-9.62c1.625-2.878,3.904-5.344,6.83-7.389
	c2.928-2.042,6.482-3.644,10.664-4.809c4.182-1.162,8.829-1.744,13.941-1.744c4.74,0,9.153,0.304,13.244,0.906
	c4.089,0.607,7.712,1.281,10.873,2.023c3.158,0.744,5.807,1.418,7.946,2.02c2.137,0.607,3.669,0.908,4.6,0.908
	c0.928,0,1.673-0.209,2.23-0.627c0.557-0.421,1.067-0.908,1.534-1.463l1.534,0.555L69.84,26.764l-1.673-0.836v-1.53
	c0-0.833-0.906-1.694-2.718-2.583c-1.813-0.889-4.112-1.669-6.902-2.365c-2.787-0.696-5.902-1.284-9.339-1.75
	c-3.44-0.463-6.786-0.694-10.037-0.694c-6.041,0-10.27,0.694-12.685,2.089c-2.418,1.393-3.625,2.884-3.625,4.469
	c0,1.572,0.836,2.761,2.509,3.552c1.673,0.794,3.856,1.368,6.552,1.736c2.695,0.368,5.761,0.683,9.201,0.903
	c3.437,0.231,6.97,0.588,10.594,1.053c3.625,0.463,7.156,1.12,10.594,1.953c3.438,0.833,6.504,2.064,9.201,3.689
	C74.208,38.078,76.392,40.21,78.065,42.863z M721.747,0h1.675v24.262h-1.675c-0.187-1.585-0.465-2.638-0.836-3.143
	c-0.373-0.507-0.931-0.766-1.674-0.766h-44.749v11.577h25.931c1.393,0,2.39-0.301,2.995-0.917c0.604-0.602,0.997-1.365,1.187-2.296
	h1.672V50.46h-1.672c-0.189-0.928-0.582-1.694-1.187-2.295c-0.605-0.602-1.602-0.903-2.995-0.903h-25.931V60.22h44.749
	c0.744,0,1.301-0.248,1.674-0.766c0.371-0.504,0.649-1.652,0.836-3.416h1.675v23.836h-1.675c-0.187-1.204-0.465-1.942-0.836-2.229
	c-0.373-0.273-0.931-0.41-1.674-0.41h-69.56v-1.683c1.764-0.176,2.856-0.491,3.274-0.9c0.418-0.424,0.627-0.958,0.627-1.599V8.085
	c0-0.649-0.209-1.187-0.627-1.605c-0.418-0.418-1.51-0.719-3.274-0.906V3.903h69.56c0.744,0,1.301-0.257,1.674-0.766
	C721.282,2.624,721.56,1.58,721.747,0z M804.19,3.903h25.51v1.672c-1.769,0.186-2.858,0.488-3.276,0.906
	c-0.418,0.418-0.627,0.956-0.627,1.605v64.968c0,0.641,0.209,1.176,0.627,1.599c0.418,0.41,1.507,0.724,3.276,0.9v1.683h-26.488
	v-1.683c1.301,0,2.162-0.137,2.58-0.41c0.418-0.287,0.627-0.655,0.627-1.12c0-0.273-0.139-0.629-0.418-1.053
	c-0.279-0.41-0.883-1.134-1.811-2.159c-0.93-1.011-2.301-2.474-4.112-4.386c-1.814-1.9-4.207-4.455-7.18-7.668
	c-2.976-3.212-6.648-7.202-11.014-11.986c-4.369-4.784-9.618-10.618-15.753-17.495v43.776c0,0.641,0.209,1.176,0.627,1.599
	c0.421,0.41,1.51,0.724,3.276,0.9v1.683h-26.485v-1.683c1.764-0.176,2.859-0.491,3.277-0.9c0.418-0.424,0.627-0.958,0.627-1.599
	V8.085c0-0.649-0.209-1.187-0.627-1.605s-1.513-0.719-3.277-0.906V3.903h33.596v1.672c-1.583,0.095-2.627,0.304-3.137,0.627
	c-0.513,0.326-0.766,0.722-0.766,1.184c0,0.189,0.605,1.025,1.811,2.511c1.21,1.488,2.789,3.346,4.742,5.575
	c1.95,2.229,4.157,4.717,6.62,7.464c2.463,2.733,4.948,5.48,7.458,8.214c2.51,2.747,4.923,5.358,7.249,7.818
	c2.321,2.46,4.321,4.578,5.993,6.341V8.085c0-1.58-0.975-2.416-2.925-2.51V3.903z M921.284,42.863
	c1.672,2.652,2.51,5.973,2.51,9.977c0,3.062-0.627,6.082-1.884,9.061c-1.256,2.967-3.393,5.645-6.411,8.01
	c-3.023,2.362-7.066,4.249-12.131,5.642c-5.065,1.396-11.359,2.092-18.887,2.092c-5.854,0-10.897-0.273-15.126-0.833
	c-4.229-0.56-7.829-1.232-10.802-2.023c-2.976-0.794-5.322-1.505-7.041-2.159c-1.722-0.657-2.998-0.972-3.834-0.972
	c-0.557,0-1.045,0.178-1.463,0.549c-0.418,0.382-0.861,0.791-1.326,1.256l-1.672-0.409l10.317-24.819l1.393,0.696
	c-0.189,0.56-0.279,1.529-0.279,2.925c0,0.928,0.858,1.981,2.577,3.143c1.719,1.162,3.951,2.254,6.692,3.265
	c2.742,1.025,5.876,1.886,9.409,2.583c3.53,0.699,7.11,1.053,10.735,1.053c6.971,0,12.078-0.819,15.335-2.446
	c3.251-1.627,4.879-3.976,4.879-7.038c0-1.669-1.418-2.856-4.252-3.555c-2.836-0.696-6.391-1.256-10.665-1.68
	c-4.277-0.409-8.877-0.875-13.8-1.393c-4.929-0.507-9.526-1.435-13.8-2.789c-4.277-1.34-7.832-3.293-10.665-5.848
	c-2.836-2.558-4.252-6.068-4.252-10.523c0-3.527,0.811-6.74,2.441-9.62c1.624-2.878,3.904-5.344,6.829-7.389
	c2.925-2.042,6.484-3.644,10.665-4.809c4.182-1.162,8.827-1.744,13.939-1.744c4.739,0,9.153,0.304,13.243,0.906
	c4.09,0.607,7.715,1.281,10.874,2.023c3.159,0.744,5.806,1.418,7.946,2.02c2.137,0.607,3.67,0.908,4.6,0.908
	c0.927,0,1.674-0.209,2.232-0.627c0.557-0.421,1.067-0.908,1.532-1.463l1.532,0.555l-9.618,19.378l-1.672-0.836v-1.53
	c0-0.833-0.908-1.694-2.719-2.583c-1.811-0.889-4.112-1.669-6.901-2.365c-2.786-0.696-5.901-1.284-9.339-1.75
	c-3.441-0.463-6.785-0.694-10.036-0.694c-6.043,0-10.273,0.694-12.685,2.089c-2.419,1.393-3.625,2.884-3.625,4.469
	c0,1.572,0.836,2.761,2.508,3.552c1.674,0.794,3.856,1.368,6.553,1.736c2.694,0.368,5.759,0.683,9.2,0.903
	c3.438,0.231,6.971,0.588,10.596,1.053c3.622,0.463,7.155,1.12,10.593,1.953c3.438,0.833,6.506,2.064,9.2,3.689
	C917.425,38.078,919.612,40.21,921.284,42.863z M397.116,3.903h28.717v1.672c-1.768,0.186-2.857,0.488-3.277,0.906
	c-0.418,0.418-0.627,0.956-0.627,1.605v64.968c0,0.641,0.209,1.176,0.627,1.599c0.419,0.41,1.509,0.724,3.277,0.9v1.683h-28.717
	v-1.683c1.765-0.176,2.857-0.491,3.277-0.9c0.418-0.424,0.627-0.958,0.627-1.599V8.085c0-0.649-0.209-1.187-0.627-1.605
	c-0.419-0.418-1.512-0.719-3.277-0.906V3.903z M517.92,48.794l14.36,21.88l-1.675,0.984c-0.187-0.463-0.443-0.777-0.766-0.914
	c-0.329-0.136-0.721-0.206-1.187-0.206c-0.649,0-1.95,0.395-3.901,1.189c-1.95,0.78-4.486,1.627-7.598,2.502
	c-3.115,0.886-6.762,1.68-10.944,2.377c-4.182,0.696-8.877,1.039-14.078,1.039c-5.575,0-11.109-0.711-16.589-2.159
	c-5.486-1.435-10.409-3.717-14.777-6.834c-4.37-3.101-7.9-7.01-10.595-11.713c-2.697-4.686-4.043-10.139-4.043-16.371
	c0-6.233,1.346-11.685,4.043-16.388c2.694-4.686,6.224-8.587,10.595-11.702c4.369-3.112,9.292-5.461,14.777-7.041
	c5.48-1.58,11.014-2.371,16.589-2.371c5.575,0,10.384,0.304,14.427,0.906c4.043,0.607,7.459,1.281,10.248,2.023
	c2.694,0.744,4.784,1.373,6.275,1.881c1.485,0.513,2.599,0.769,3.343,0.769c0.836,0,1.532-0.371,2.093-1.117l1.532,0.421l-12.546,23
	l-1.393-0.972c0.089-0.287,0.159-0.588,0.206-0.914c0.047-0.315,0.072-0.711,0.072-1.176c0-0.752-0.627-1.491-1.883-2.229
	c-1.254-0.752-2.925-1.421-5.018-2.023c-2.09-0.613-4.486-1.12-7.18-1.544c-2.697-0.409-5.531-0.616-8.504-0.616
	c-2.789,0-5.714,0.315-8.782,0.97c-3.068,0.658-5.879,1.725-8.434,3.212c-2.558,1.477-4.65,3.458-6.275,5.918
	c-1.624,2.46-2.438,5.466-2.438,8.994c0,3.524,0.814,6.533,2.438,8.994c1.625,2.46,3.717,4.441,6.275,5.918
	c2.555,1.488,5.366,2.555,8.434,3.21c3.068,0.658,5.993,0.973,8.782,0.973c1.21,0,3.112-0.206,5.715-0.63
	c2.602-0.409,5.204-0.997,7.807-1.736c2.602-0.738,4.901-1.585,6.901-2.516c1.998-0.928,2.998-1.897,2.998-2.923
	c0-0.465-0.095-0.836-0.278-1.109c-0.189-0.287-0.374-0.613-0.558-0.984L517.92,48.794z M631.389,75.28
	c0.649,0.178,1.44,0.273,2.371,0.273v1.683h-31.924v-1.683c0.836,0,1.485-0.067,1.95-0.204c0.465-0.137,0.697-0.671,0.697-1.599
	c0-0.287-0.418-1.12-1.254-2.516c-0.835-1.393-1.905-3.115-3.207-5.152c-1.301-2.051-2.742-4.238-4.321-6.559
	c-1.58-2.324-3.065-4.553-4.461-6.684c-1.393-2.145-2.647-4.004-3.764-5.578c-1.114-1.582-1.858-2.65-2.229-3.21l-13.664,12.273
	v16.728c0,0.641,0.209,1.176,0.63,1.599c0.418,0.41,1.508,0.724,3.274,0.9v1.683h-28.717v-1.683c1.766-0.176,2.858-0.491,3.276-0.9
	c0.418-0.424,0.627-0.958,0.627-1.599V8.085c0-0.649-0.209-1.187-0.627-1.605s-1.51-0.719-3.276-0.906V3.903h28.717v1.672
	c-1.766,0.186-2.856,0.488-3.274,0.906c-0.42,0.418-0.63,0.956-0.63,1.605v25.087h0.978c2.786-2.692,5.784-5.48,8.991-8.364
	c3.207-2.869,6.155-5.547,8.852-8.01c2.694-2.463,4.948-4.553,6.762-6.274c1.811-1.716,2.717-2.764,2.717-3.137
	c0-0.833-0.234-1.323-0.697-1.46c-0.465-0.142-1.07-0.257-1.811-0.351V3.903h35.406v1.672c-0.928,0.095-1.697,0.234-2.298,0.418
	c-0.608,0.189-1.165,0.468-1.675,0.838c-0.512,0.371-1.07,0.814-1.672,1.324c-0.605,0.51-1.324,1.14-2.162,1.881l-24.114,20.773
	l28.436,42.517C630.04,74.446,630.737,75.09,631.389,75.28z"/>
</svg>
