<svg version="1.1" id="spin-icon" xmlns="http://www.w3.org/2000/svg" xmlns:xlink="http://www.w3.org/1999/xlink" x="0px" y="0px" width="75px" height="75px" viewBox="0 0 75 75" enable-background="new 0 0 75 75" xml:space="preserve">
<path fill="#FFFFFF" d="M37.425,20.475c-9.66,0-18.72,1.5-25.53,4.23C5.37,27.315,1.62,30.87,1.62,34.44
	c0,6.375,11.37,12,27.195,13.545l-3.525-3.99l0.945-0.825l4.995,5.655l-6,4.575l-0.765-1.005l4.155-3.15
	C11.91,47.595,0.36,41.58,0.36,34.44c0-8.535,16.275-15.225,37.065-15.225S74.49,25.905,74.49,34.44
	c0,7.14-11.55,13.155-28.26,14.805l4.155,3.15L49.62,53.4l-6-4.575l4.995-5.655l0.945,0.825l-3.525,3.99
	C61.86,46.44,73.23,40.815,73.23,34.44c0-3.57-3.75-7.125-10.275-9.735C56.145,21.975,47.085,20.475,37.425,20.475z"/>
</svg>
