<svg version="1.1" fill="white" id="3d-icon" xmlns="http://www.w3.org/2000/svg" xmlns:xlink="http://www.w3.org/1999/xlink" x="0px" y="0px" width="75px" height="75px" viewBox="0 0 960 560" enable-background="new 0 0 960 560" xml:space="preserve">
	<g>
		<path d="M953.472,240.832c0-109.248-208.32-194.88-474.432-194.88C213.12,46.144,4.608,131.584,4.608,240.832
			c0,33.216,19.968,65.856,57.984,94.272l9.6-12.864c-33.6-25.344-51.456-53.376-51.456-81.408c0-45.696,48-91.2,131.52-124.608
			C239.424,81.28,355.392,62.08,479.04,62.08s239.616,19.2,326.784,54.144c83.52,33.408,131.52,78.912,131.52,124.608
			c0,81.6-145.536,153.6-348.096,173.376l45.12-51.072l-12.096-10.56l-63.936,72.384l76.8,58.56l9.792-12.864l-53.184-40.32
			C805.632,409.216,953.472,332.224,953.472,240.832z"/>
		<path d="M240.148,399.536c22.464-7.68,40.896-25.728,40.896-49.536c0-32.256-29.952-52.992-70.464-52.992
			c-28.608,0-50.88,9.408-68.544,21.888l10.944,36.096c14.208-9.984,30.144-17.28,45.312-17.28c19.584,0,29.568,7.68,29.568,21.312
			c0,21.312-26.112,27.648-54.336,32.832v35.712c7.68-0.96,17.28-1.92,26.304-1.536c24.768,0.96,36.672,9.024,36.672,25.344
			c0,17.28-14.208,26.688-36.288,26.112c-17.664-0.384-37.632-7.104-52.8-15.744l-5.76,39.552
			c17.088,9.408,38.592,15.168,62.784,15.168c45.12,0,82.56-24.192,82.56-65.664C287.188,426.416,271.06,405.296,240.148,399.536z"/>
		<path d="M389.524,254.768c-13.824,0-75.648,0-75.648,0v201.024c0,0,71.04,0,72,0c73.728,0,114.432-40.128,114.432-101.952
			C500.308,293.936,460.18,254.768,389.524,254.768z M388.756,414.896h-23.808V295.664h21.312c41.856,0,62.784,18.624,62.784,60.096
			C448.852,395.888,425.812,414.896,388.756,414.896z"/>
	</g>
</svg>
