
<svg version="1.1" id="eye-close" xmlns="http://www.w3.org/2000/svg" xmlns:xlink="http://www.w3.org/1999/xlink" x="0px" y="0px" viewBox="0 0 936 758.831" enable-background="new 0 0 936 758.831" xml:space="preserve">
<path d="M710.547,218.13L936,38.759L905.169,0L659.841,195.172c-57.918-23.344-122.829-39.42-191.759-39.42
	c-244.722,0-438.958,202.88-447.106,211.524c-7.598,8.038-7.598,20.646,0,28.684c5.12,5.395,83.299,87.098,201.173,147.384
	L0,720.072l30.831,38.759l241.694-192.254c58.854,24.169,125.086,40.961,195.502,40.961c244.777,0,438.958-202.88,447.106-211.524
	c7.598-8.038,7.598-20.646,0-28.684C910.014,361.77,830.348,278.526,710.547,218.13z M468.082,198.09
	c48.504,0,92.603,18.939,125.417,49.77l-78.729,62.598c-13.434-8.809-29.455-13.984-46.742-13.984
	c-46.962,0-85.061,38.098-85.061,85.061c0,10.406,1.872,20.371,5.285,29.565l-78.509,62.433
	c-15.856-27.087-24.94-58.634-24.94-92.218C284.802,280.288,367,198.09,468.082,198.09z M66.067,381.59
	c33.474-31.437,121.453-107.083,235.253-150.962c-36.116,39.915-58.139,92.824-58.139,150.742c0,43.384,12.332,83.96,33.749,118.369
	l-18.113,14.425C165.882,469.844,95.246,408.953,66.067,381.59z M468.082,564.65c-49.66,0-94.696-19.875-127.729-52.028
	l78.014-62.048c13.984,10.13,31.161,16.076,49.77,16.076c46.962,0,85.061-38.098,85.061-85.061c0-11.672-2.367-22.848-6.662-32.978
	l78.234-62.213c16.902,27.693,26.592,60.231,26.592,95.026C651.307,482.452,569.109,564.65,468.082,564.65z M634.24,532.773
	c36.447-39.97,58.744-93.154,58.744-151.403c0-44.54-13.048-86.107-35.456-121.067l16.241-12.938
	c94.696,44.375,166.763,106.533,196.328,134.281C836.515,413.137,748.371,488.894,634.24,532.773z"/>
</svg>
